/* XPM */
static char *cb7e62e1c34b42c7e83f98667ab55e0cD82JhZOm2CClAqGK[] = {
/* columns rows colors chars-per-pixel */
"64 64 256 2 ",
"   c #DEE4D1",
".  c #E7DEC6",
"X  c gray84",
"o  c #D6D6CE",
"O  c #D6D6C6",
"+  c #DED6AD",
"@  c #D6D6BD",
"#  c #CED6C6",
"$  c #CED6BD",
"%  c #CED6B5",
"&  c #CECEC6",
"*  c #CECEBD",
"=  c #CECEB5",
"-  c #C6CEBD",
";  c #C6CEB5",
":  c #C6CEAD",
">  c #C6C6AD",
",  c #C2C4B5",
"<  c #BDC6AD",
"1  c #BDBDAD",
"2  c #BDBDA5",
"3  c #D6BD5A",
"4  c #B5BDAD",
"5  c #B5BDA5",
"6  c #B5BD9C",
"7  c #727D6D",
"8  c #BDB5A5",
"9  c #ADBDA5",
"0  c #B5B5A5",
"q  c #B5B59C",
"w  c #CACDC0",
"e  c #B8B58C",
"r  c #ADB5A5",
"t  c #ADB59C",
"y  c #AFB594",
"u  c #B7ADA5",
"i  c #BDB273",
"p  c #B5AD9C",
"a  c #A5B59C",
"s  c #B5AD94",
"d  c #ADADA5",
"f  c #ADAD9C",
"g  c #ADAD94",
"h  c #A5AD9C",
"j  c #A5AD94",
"k  c #C2AB4D",
"l  c #ADA5A5",
"z  c #A0A896",
"x  c #A5AD8C",
"c  c #AEA594",
"v  c #ADA49C",
"b  c #9CAD94",
"n  c #ADA58C",
"m  c #9CAD8C",
"M  c #A5A59C",
"N  c #A5A594",
"B  c #9CA89C",
"V  c #A5A58C",
"C  c #9CA594",
"Z  c #4E645B",
"A  c #9CA58C",
"S  c #AD9C8C",
"D  c #92A796",
"F  c #A59C9C",
"G  c #9CA584",
"H  c #A59C94",
"J  c #7BB57B",
"K  c #94A58C",
"L  c #A59C8C",
"P  c #6BBD6B",
"I  c #9C9C94",
"U  c #9C9C8C",
"Y  c #9C9C84",
"T  c #AA9C5A",
"R  c #B19C43",
"E  c #64BD63",
"W  c #9C9C7B",
"Q  c #A5948C",
"!  c #949C8C",
"~  c #A59484",
"^  c #949C84",
"/  c #9C9494",
"(  c #8C9C94",
")  c #949C7B",
"_  c #9C948C",
"`  c #8C9C8C",
"'  c #9C9484",
"]  c #92949A",
"[  c #9C947B",
"{  c #899C81",
"}  c #94948C",
"|  c #A5945A",
" . c #949484",
".. c #94947B",
"X. c #9C8C8C",
"o. c #9E8C84",
"O. c #A39250",
"+. c #8C9484",
"@. c #AA913E",
"#. c #5AB45A",
"$. c #9C8C7B",
"%. c #8C947B",
"&. c #948C8C",
"*. c #8C9473",
"=. c #948C84",
"-. c #779C77",
";. c #948C7B",
":. c #84947B",
">. c #8C8C84",
",. c #8C8C7B",
"<. c #8D8C73",
"1. c #7B9473",
"2. c #838C7B",
"3. c #679C63",
"4. c #8C847B",
"5. c #52A952",
"6. c #8C8473",
"7. c #94874D",
"8. c #5AA15A",
"9. c #97873C",
"0. c #84847B",
"q. c #998731",
"w. c #738E6D",
"e. c #848473",
"r. c #678C62",
"t. c #84846B",
"y. c #8C7B7B",
"u. c #847B8C",
"i. c #7B8473",
"p. c #8C7B73",
"a. c #63945B",
"s. c #529C52",
"d. c #847B73",
"f. c #4AA04A",
"g. c #847B6B",
"h. c #7B7B73",
"j. c #7B7B6B",
"k. c #887B42",
"l. c #827B52",
"z. c #469C42",
"x. c #6E8160",
"c. c #5A8C5A",
"v. c #5A8C52",
"b. c #8E7827",
"n. c #7B7373",
"m. c #4D914D",
"M. c #7B736B",
"N. c #7B7363",
"B. c gray45",
"V. c #73736B",
"C. c #359C35",
"Z. c #607E5F",
"A. c #737363",
"S. c #5A7F52",
"D. c #528352",
"F. c #428E42",
"G. c #67735A",
"H. c #736B63",
"J. c #4D814A",
"K. c #6B6B63",
"L. c #6E676F",
"P. c #6B6B5A",
"I. c #428442",
"U. c #6B6B52",
"Y. c #7B6834",
"T. c #388838",
"R. c #7B6629",
"E. c #6F6742",
"W. c #527252",
"Q. c #6B635A",
"!. c #666363",
"~. c #6B6352",
"^. c #5A6B52",
"/. c #CDD0CB",
"(. c #736331",
"). c #63635A",
"_. c #636352",
"`. c #A19F86",
"'. c #4D6D4A",
"]. c #6B5A5A",
"[. c #735F26",
"{. c #625F42",
"}. c #635A5A",
"|. c #397731",
" X c #635A52",
".X c #426E3D",
"XX c #635A4A",
"oX c #5A5A5A",
"OX c #5A5A52",
"+X c #4B624A",
"@X c #2F752F",
"#X c #5A5A4A",
"$X c #4A6342",
"%X c #5A5A39",
"&X c #5A5263",
"*X c #426342",
"=X c #635242",
"-X c #5A524A",
";X c #575252",
":X c #5A5242",
">X c #4A5A42",
",X c #5F5231",
"<X c #2E6B2E",
"1X c #52524A",
"2X c #425A42",
"3X c #525239",
"4X c #525042",
"5X c #5D4F25",
"6X c #405A39",
"7X c #2C632C",
"8X c #524C31",
"9X c #524A39",
"0X c #425239",
"qX c #4A4A39",
"wX c #395239",
"eX c #4A454F",
"rX c #424742",
"tX c #3C4A39",
"yX c #4A4239",
"uX c #4A4231",
"iX c #295229",
"pX c #42394A",
"aX c #4A3931",
"sX c #423931",
"dX c #453C18",
"fX c #1D4E1F",
"gX c #423929",
"hX c #393939",
"jX c #393931",
"kX c #393929",
"lX c #393142",
"zX c #2E3439",
"xX c #1D421B",
"cX c #393129",
"vX c #313131",
"bX c #393020",
"nX c #313123",
"mX c #392929",
"MX c #213125",
"NX c #312921",
"BX c #292931",
"VX c #183618",
"CX c gray16",
"ZX c #292118",
"AX c gray13",
"SX c #1E2129",
"DX c #182121",
"FX c #102110",
"GX c #181821",
"HX c #181818",
"JX c #101018",
"KX c #101010",
"LX c #081010",
"PX c #080810",
"IX c gray3",
"UX c black",
/* pixels */
"#XXX#X1X-X-X#X1X-XXX-X-X X-XuXU.U.uX4XOX-X;X1XOXXX#XOX).].~.#X-X_._._._._._.#XXX:X:X:X:X4XNXbX9X4XcXcXNXNXcXcXnXcXcXcXnXNXcXkXsX",
"~.+.0...u p D *.0.I  .+.[ 0.sXNXNXsXh.>.^ ^ o._ ! 0.! D 0 p Y ;.y.0.y.y.0.y._ n c q q 2 p F sXZXZXcXY Y ' I _ ..U U ^ L _ ! } sX",
"OX,.,.;.` { C !  .,. .=.,.2.P.kXjXA.} L _ ;.2. .A L ' H r U W ( +.B I n U A U j v A U V V ( H.cXsXA.&._ =.v ' A m V U ' U U } gX",
"1X.. . .,.%.>.,.,.<.,.}  .' U U '  .>.=.4.e.d.0.,.} ! } I  .+.+.+.! +. .U >.,. .;.;.;. . .,. ._  .U U ,._  .;. . .;.>.e.M.L +.cX",
"-Xf ' ,. .X 2 g q f 0 t q q q f 0 q f 0 N I N f h r r 4 < 1 < 5 5 0 1 r 0 t 5 f q t f g 8 5 0 1 1 5 0 q q 2 q 5 q f U 4.K.! =.kX",
"#Xs L ,.U q V g V j U U j N U  .U U U _ U U }  .C h h t N q t r h h j f A N C U U U N L c f c V t f g N j U g j g V U h.}.! Y gX",
"#X( U  .U 0 c N V U f j N N Y ! .. .U } +. .>. ._ N j L g f h t f t M N g U U h U N U V N U U U N V V V V g g y g V L j.K.A  .cX",
"1X*. .,.C 0 g c L N V q A A  .%.U ! U +. .} U U U U U V N N N N h h f A j j U f j U 1 q =.,. . .U  .U ' U ,.j.H.f c L e.Q.^ %.gX",
"XX4.K +.U 2 N g L g g V X o 4 U +.U  .U  .+.,.M.U A U U N g N f N h j N U N V j L L f  .Q.}. X X). X X XQ.H.,. Xg V V d.)...4.sX",
" XU Q  .V f N f n g y q 2 < ^ {  .,. .,.+.%.0.M.Y A Y V V U M f j h N N A V V V V V f A.L.!.;XeXvXCXCXCXSXBX,.K.N V N V. XY ! sX",
"OXp ^ %.U 5 g g g V V g N ^ ,.j.j.d.e.i.j.M.M.H.U ^ U U A U M h t A j A A Y U V V Y q ).oXoX1XrXhXvXCXAXHXSXf A.V j ! h.K.I g sX",
"#XU ^ ,.V f A U U L y t y A j ! U ^ } U ..,.%...A U V U A j j h j C A V V A V G U V 0 Q.rXc.c.3.E hXCXAXHXSX0 j.t f C V.K.U U sX",
"-X .:.%. .t U U V x g A X X > 5 t 0 f f t ! <.e.%.U ^ A X X < t 0 r f j g 6 5 2 f  .Y P.vXvXhXeXoXrXvXCXAXDX0 V.j t N h.P.g  .aX",
" X[ +.,.U t j V U g V V : % V A V ^ U  .%...e.j. .A V U X g _ ,.,.+.,.,.,.;. .;.;.,.=.M.CX.XJ.E B.;XvXCXHXSXq V.f V U j.Q.U ' sX",
"-X0.,.,.U f j f A j g g N V  .' ,.,. .,.<.,.,.j.^ U  .V 5 U U N C Y U Y A V U f t V q H.AXHXMXhXB.eXvXCXAXSX0 H.A A  .j.Q.( _ gX",
"uXsXP. . .t V V g f A U U Y U Y A U U U U ^ U V ^ U Y U f _ U U A U Y A  .U U N V V 2 N.HXxXwX.XJ 8.z.CXAXSX0 K.N Y A V.Q.H.sXbX",
"U.NXkX' ^ q A y f A t j X X O 1 2 0 2 5 5 U  .e. .! U U j Y  .U  .U Y U  .U V j N j 1 N.KXKXHXvX!.hXHXHXHXDX1 M.N V U M.).cXZX9X",
"U.NXjX .U 5 A V y j V j 1 X 1 j U N N U N V h.M.U U ^ A q  .! ^ U A  .U ^ %.U U t f 2 M.KXVXxX6X-.J.<XC.IXGX, M.L ! U h.Q.sXZX4X",
"uXsXA.U Y 2 x V t V t f ! >.e.h.h.h.d.M.e.M.H.H.N U A A q U A Y V  .U %.,.U A ^ Y g ; M.KXIXPXAXoXjXKXIXIXJX< j.j  .U A.Q.V.cXcX",
"4Xh.} C N 5 j V t V j A N A h h j V A A N V f N j C A _ 5 U V Y Y V Y  . . .Y V x t < M.KXxXiX|.P #.JXIXIXPX5 H.N U  .H. X&.Y cX",
"OX=.H } N 1 f y f g V f 0 * ^  .N A N f 2 N U U j N U U t ..U U ' V  .U  . . .U Y g > N.KXIXIXDX;XvXHXKXIXPX1 H.U U  .H.OXX.>.bX",
"-X! I I N 1 t x x V A Y & o ^ e.U U A * X 0 ,.0.A f j j 0 ^ U  .A A U U  .U  .A V V > j.JXxXfX|.8.5.HXKXUXLX1 M.U U ;.j. X .' cX",
"#X' N U M , 9 j V Y A W V U ,.0.U j N N  . .d.e.N N V V < U U Y U U =.U  .} U A Y L > j.AXIXIXHXCXCXHXKXIXPX, K. .U  .M.#XU } cX",
"OXI M C N 4 f j j ^ ^ %.,.j.h.,.C A V U  .d.d.} C A U A * A ! ! U U } U U  .U V V A > N.CX<X@XC.HXAXAXHXIXJX< A.U U ! M.Q.} =.yX",
"XXC d M M 4 j U U A +.^ +.+.+.! A V U N U _ U U N N A U O A U U f f 0 0 0 N ,.Y Y ' q N.vXAXHXHXHXHXAXAXKXHX, M.U U U V.].W ! yX",
"#X} c I C 0 N V U U ! ,.$ $ r h v N N V _ U >.0.N A A U $ V  .U U ! U U N U d.U ^ V q H.vX*X<X<X|.z.AXAXHXAX0 V.U C _ H.Q.{ o.yX",
"OXN f N N 0 N A U Y ! U h j U ^ U Y A U V  .e.V.N M U N ; ' Y A A U N U N V ;.U U ..1 N.CXMXHXHXHXHXHXAXAXBX; K.U U  .h. XY Q yX",
").q d ' N t A A U ^ %.+.,.j.H.A.H.A.V.M.j.A.V.h.C j A N q ,.V U ' j U V U N  . .[ ^ 2 t.pXBXSXAXGXDXSXBXzXzX; Q.U C U V.}.V c yX",
"].s a U U q ^ ^ ^ ^ U  .Y A  .U Y U ^ A A j A N A X X X U j.V U L V U Y V t ' Y  .! ,...i.,.0.>.>. .' ' 4.f ,.-X^ ! U j.}.U F yX",
"~.t G U U j U U ^ %.U @ U U @ U U @ U N @ _ A @ U # * ! >.H.V _ N V U V j c ,. .U U A.).A.K.K.M.j.V.j.M.H.OX#X4X^ A A j.).F c qX",
"#XN l _ N t U ! ^ ^  .<  .%.<  .^ <  .A <  .A <  .U e.! A.A.' L V N j g j f U ^ ! U U U A A A A N f f V A Y V Y A A  .V.Q.m A yX",
"-XB F U M 0 U U ,.+.^ g %. .g %.^ g %.A g %.N g %.j U +.,.' ! L U V j j j 2 A V j ^ A Y A U N N t N t j g V Y A .. .,.M.}.) o.yX",
"_.C B I C 0 A U ^ U %.U <.^ A <.A U <.j A <.N A 6.A U  .U U _ _ U N N V g q Y U A U V U U j A f f N j V j n A V U U  .V.OXU >.yX",
"#Xf U U U 0 N %.^ U A  .e. . .e.U  .e.j  .e.U  .e.! !  .U  .V U U V N j j V U x Y Y Y U Y U N N f q g n n g V A U ,.,.K.}.' =.yX",
"XX2 s _ A f U ^  .^ U U U Y Y ^ U Y U A j N N A N N A U V V V U U 5 ; o O * , O @ @ @ % O $ o o O O O O o O % Y j.+.>.K.;X~  .kX",
"=X8 [ U U q ^ ,.Y A Y A U ..N Y U ^  .U C ! U U U U ^ U V U N f f 2 j ,.j.M.M.j.j.M.A.j.A.j.V.j.e.N.g.d.e.e...j j.U ,.K.;X,.=.kX",
"#XS 6. .U j  .U  .X X 0 N g j 2 ; 1 r j h f j f f  .,.A f V A g V - U G.2XtXwX0X2X2X6X>X$X2X>X>X6X0X6X2X+X'.i.t e.U 2.K. X .Y gX",
"#XQ Y 4.,.j ..! ^ o U ,.e.,.,.' U U %.+.h.>.,. . . .e.U U X o 5 N 1 Y 2XVXxX7XF.F.5.P P #.P E #.5.f.F..XfXwXS.; +.}  .V.}.V  .kX",
" X&.! e.,.N  .,. .5  .>X>X^.W.'.+XV %.3X,XY.Y.[.,XC ;.U j X A U U 2 V $XMXxX7X|.T.F.m.8.s.#.s.5.m.T.I.<X<X.XS.$ ,.U } K.}.Y %.gX",
" Xj ;.6.e.A %. .+.f ^ >Xx.-.1.Z.2Xx ^ ,Xk.| @.b.5XN } A j ; A f j = t i.'.J.S.c.c.3.a.3.3.3.a.a.v.D.D.c.a.Z.w.o 0.U } H.!...0.sX",
" XI { =.,.N ! ,.A 0  .G.B # 4 1.W.q U E.i + e T R.t U A A 5 U A j f q q @ O @ $ O $ o O O @ O O o O o o X X X f e. .=.n.!.} U sX",
" Xp S  .+.h ,. . .0 =.Z.D   # { W.5 ^ Y.i . . T R.0 U U N 4 A A N f g ,.e.,.,.e.0.0.e.e.,.2.0.2.,. .,. .,.4. .U M.N  .V. Xj g sX",
"-X8 c ,.,.I  .,.Y 0  .^.1.b b w.'.< ! (.7.i i @.R.4 U U U # j f U 1 ,.U.9X8X8X3X%X#X{.#X{.{.{.{.%X{.{.{.{.U.l.f e. . .j.].N  .:X",
"9Xq A ,.4.! ,.,. .5  .2XW.Z.Z.S.6X< U 5XR.9.q.b.5X; U A h X r M C , j.3XbXdX[.9.@.R 3 3 k 3 3 3 k @.q.R.5X5Xl., 2.L U M.Q.U ' qX",
"NXF ! d.,.C ,.,.+.<  .>X2X'.'.$X+X1 _ 8X,XR.R.[.,Xf U A A $ r U } < M.%XgXdX[.b.b.@.@.k @.k R R @.q.q.R.Y.E.l.$ ,.U =.H.-X( _ NX",
"bXsXH.,. .h  .U ,.j  . .g N f q N >.! _ f 8 , , 0 N d.U M - M C C - U N.E.E.k.7.7.T O.| | | 7.| 7.7.k.7.7.l.7.o h.} } V.}.H.sXbX",
"9XZXcXe.,.h U ! ! e.e.,.X A e.,.4.M.d.4.} _ U I >.4.h.N M 1 I M U h N f < - $ - # $ # ; - - - $ O % @ O $ o X C V.C } H. XcXZX9X",
"4XZXsX,.,.U  .}  .U >. .X f M.' _ >.>.U U N H U A U N N N 1 I N } U U j.4.h.0.,.,.,.4.,.e.2.,.i.>. .4.0.,.e. .! h.} ! V.-XsXZX4X",
"cXcXA.0. .N A  . .U  . .< N A.Y ! } ! U I U N N A U V U f > _ N A 0 e.^.qXtXwX0X0X2X2X>X+X2X2X$X2X6X2X2X+X+XZ.U 2.! >.!.1XV.cXcX",
"cXY &.,.,.f  .! U A C C < A M.U U U >.>. .U U A A _ U j N $ N U U > h.0XVXxX7XF.m.f.P P #.P P #.5.f.F.|.iXiX^.< 0.,.,.).-X&.Y cX",
"NXY _ 6.,.j ' U N C N N 4 U h. .U } ,.+.,.^ U U _  .A h N 0 N N U > M.6XMXxX7X|.T.F.m.8.s.8.s.s.s.T.I.<X6X.XS.# ,.+.,.).1X_ >.NX",
"NX=._ ;.,.f U U U N f C , A V._ U =.%.>. . .Y >.! U N N N }  .' U r 6.x..X'.J.D.D.a.a.3.3.3.a.a.S.v.D.S.v.D.w.o j. . .H. X! [ NX",
"cX} H  .U f U ! j h N N < C M.U _ U  .U  . . . . .N N N f N j U  .' U < g N j L q 2 f t q N t 0 5 q f t C t X ! A. . .K.-X_ &.NX",
"vX=._ U ..f ^ ! j M f V 1 N e.N U Y U U ^  . .,. .U c H f f U N U j.V.j.e.h.d.e.,.4.,.4.4.d.4.=.,.,.2.,.e.M.h.H.K.! ,.A.-X_ &.NX",
"bX=.'  . .r ^ A U N N j f N ,.V V  .U V ^  .U !  .N N f g U V  .,.U U % q +.^ !  ._ U ,. .,._  . . . . .e.e.U ! }  .,.H.OX) _ NX",
"nX,.,. .U j C C h I U N ! U  ._ N 0 2 4 5 2 0 t 0 1 0 1 2 5 5 f N } ,.t u.] L.pXeXf u.] L.pXeXp u.] L.pXeXV._ U  .U ,.A.#XY } NX",
"cXY +.! U t C C h f h C >.0.i.,.U  . . . . .U  . .U  ._ U  ...,.,.,.V.U &XpXlXlXpX,.&XpXlXlXpX4.&XpXlXlXpX!.V U U  .,.P. Xm  .NX",
"cX .U U U r r r M N N h h M M N N U U ' U L U N N N _ Y U  .%.! ,. . .e.h.K.H.V.j.M.P.H.H.K.M.j.H.H.H.K.!.H.U  .U  .,.A. XY  .NX",
"cX .A } N C M M C N C C M ! U U U ' ' Y ;.' L L V U  ...,.%.,.4.>.+.! +.+.!  .N U V V U U U c V g v U N N  .=.=.,...,.A. X~  .yX",
"bXU V } } >.0.4.d.0.d.j.h.d.V.j.M.j.M.N.M.M.h.d.e.e.V.j.K.K.H.K.).K.h.M.M.j.M.j.d.M.V.M.j.d.d.h.d.d.d.d.M.n.H.V.P.Q.P.P. XL U NX",
"cX/ n >.n.V.V.!.H.K.K.K.K. X X).). XQ. XQ.Q.Q.K.H.!. X X).;X;X1X}.).}.Q.!.Q.}.K.K.).Q.Q.Q.H.H.H.H.Q.H.).!.K.). X-X XOX X X( H mX",
"yX_ G U A M f ! V S ( A q L P.cXjXh.' _ L n I g / B M n U v U X.! V G $.g g C n M F N ! I L Q.cXsXV.&./ /  .+.2.,.' Y L L  .^ sX",
" X+.,.' u p C *.,.I q  .[ 2.sXNXnXsXh. .^ ^ o._ ! >.I a L L 0.p.0.>.s &.o.} M S v j g v _ H jXZXZXcXY Y =.' } ,. . ...Y _ ! ^ #X",
"yX#X#X1X-X#X#X1XXX XOX-X X-XyXU.U.uX4XOX-X;X-XOXXX#XOX).].~.#XOXU.#XXX=X#X#X X_.-X:XqX:XyXNXbX9X4XcXcXNXNXNXmXNXcXcXcXnXNXcXsX-X"
};
