/* XPM */
static char *c6d8aa257e1941e9cd46dbb7870376c2cSNXuoQQF0FiIIo4[] = {
/* columns rows colors chars-per-pixel */
"64 64 256 2 ",
"   c #ADA59C",
".  c #949498",
"X  c #8C8C7B",
"o  c #67A14E",
"O  c #848684",
"+  c #7B8584",
"@  c #848463",
"#  c #7B847B",
"$  c #73847B",
"%  c #827B73",
"&  c #7B7B7B",
"*  c #4A9C42",
"=  c #737B7B",
"-  c #737B73",
";  c #5C903E",
":  c #747B6B",
">  c #5C8A4D",
",  c #6B7B73",
"<  c #7B736B",
"1  c #737B52",
"2  c #73737B",
"3  c gray45",
"4  c #73736B",
"5  c #528C39",
"6  c #6B7373",
"7  c #6B736B",
"8  c #568442",
"9  c #4A8C31",
"0  c #617B4C",
"q  c #637371",
"w  c #528439",
"e  c #637363",
"r  c #6B6E63",
"t  c #6B7342",
"y  c gray42",
"u  c #5A736B",
"i  c #4A8439",
"p  c #5A7363",
"a  c #636B73",
"s  c #4A8431",
"d  c #577A42",
"f  c #636B6B",
"g  c #6B7329",
"h  c #636B63",
"j  c #527B39",
"k  c #656B5A",
"l  c #428431",
"z  c #428429",
"x  c #5A6B6B",
"c  c #527354",
"v  c #428421",
"b  c #4A7B39",
"n  c #5A6B63",
"m  c #5F6B52",
"M  c #52734A",
"N  c #4A7B31",
"B  c #5A6B5A",
"V  c #63636B",
"C  c #616B44",
"Z  c #526B6B",
"A  c #398429",
"S  c #4A7352",
"D  c gray39",
"F  c #526B63",
"G  c #398421",
"H  c #4A734A",
"J  c #63635A",
"K  c #427B31",
"L  c #526B5A",
"P  c #4A7342",
"I  c #5A636B",
"U  c #636352",
"Y  c #427B29",
"T  c #526B52",
"R  c #5A6363",
"E  c #526B4A",
"W  c #636342",
"Q  c #5A635A",
"!  c #318418",
"~  c #467339",
"^  c #427342",
"/  c #52636B",
"(  c #5A6352",
")  c #4A6B52",
"_  c #6B5A52",
"`  c #397B29",
"'  c #526363",
"]  c #5A634A",
"[  c #4A6B4A",
"{  c #397B21",
"}  c #427331",
"|  c #52635A",
" . c #2C8410",
".. c #4A6B42",
"X. c #427329",
"o. c #526352",
"O. c #4A6B39",
"+. c #4A6363",
"@. c #52634A",
"#. c #426B4A",
"$. c #298408",
"%. c #317B21",
"&. c #4A635A",
"*. c #526342",
"=. c #426B42",
"-. c #5A5A5A",
";. c #317B18",
":. c #4A6352",
">. c #555A63",
",. c #397329",
"<. c #426B39",
"1. c #5A5A52",
"2. c #4A634A",
"3. c #88856D",
"4. c #397321",
"5. c #5B5A4A",
"6. c #426B31",
"7. c #5D5A42",
"8. c #4A6342",
"9. c #525A5A",
"0. c #297B18",
"q. c #525A52",
"w. c #297B10",
"e. c #42634A",
"r. c #3E6B29",
"t. c #4A5A63",
"y. c #317321",
"u. c #525A4A",
"i. c #396B31",
"p. c #5A5A31",
"a. c #426342",
"s. c #4A5A5A",
"d. c #426339",
"f. c #5A5252",
"g. c #4A5A52",
"h. c #217B10",
"j. c #2E7316",
"k. c #4A5A4A",
"l. c #217B08",
"z. c #525742",
"x. c #525A31",
"c. c #52525A",
"v. c #425A5A",
"b. c #4A5A42",
"n. c gray32",
"m. c #425A52",
"M. c #396339",
"N. c #346921",
"B. c #52524A",
"V. c #425A4A",
"C. c #396331",
"Z. c #4A525A",
"A. c #425A42",
"S. c #396329",
"D. c #4A5252",
"F. c #425A39",
"G. c #4A524A",
"H. c #316331",
"J. c #4A5242",
"K. c #316329",
"L. c #425252",
"P. c #2D6718",
"I. c #697956",
"U. c #395A39",
"Y. c #42524A",
"T. c #395A31",
"R. c #425242",
"E. c #4A4A52",
"W. c #524C31",
"Q. c #425239",
"!. c gray29",
"~. c #736E55",
"^. c #355A29",
"/. c #4A4A42",
"(. c #395242",
"). c #424A52",
"_. c #4A4A39",
"`. c #395239",
"'. c #424A4A",
"]. c #4A4A31",
"[. c #424A42",
"{. c #424E29",
"}. c #424A39",
"|. c #394F31",
" X c #394A4A",
".X c #424A31",
"XX c #4A4242",
"oX c #394A42",
"OX c #394A39",
"+X c #42424A",
"@X c #4A4231",
"#X c #314D39",
"$X c gray26",
"%X c #424239",
"&X c #424231",
"*X c #42451E",
"=X c #314A31",
"-X c #394245",
";X c #424229",
":X c #394239",
">X c #394231",
",X c #4A3931",
"<X c #394229",
"1X c #314239",
"2X c #423939",
"3X c #314231",
"4X c #423931",
"5X c #393942",
"6X c #393939",
"7X c #2D4229",
"8X c #294231",
"9X c #393931",
"0X c #313942",
"qX c #313939",
"wX c #313931",
"eX c #293942",
"rX c #3B3429",
"tX c #393621",
"yX c #393139",
"uX c #293939",
"iX c #2D3929",
"pX c #393131",
"aX c #293931",
"sX c #313131",
"dX c #313129",
"fX c #293139",
"gX c #293131",
"hX c #293129",
"jX c #312929",
"kX c #243121",
"lX c #292934",
"zX c gray16",
"xX c #212931",
"cX c #292721",
"vX c #212929",
"bX c #212921",
"nX c #292512",
"mX c #212131",
"MX c #182918",
"NX c gray13",
"BX c #182121",
"VX c #18184A",
"CX c #182118",
"ZX c #141825",
"AX c #181818",
"SX c #101A10",
"DX c #101618",
"FX c #101010",
"GX c #101008",
"HX c #081008",
"JX c #050526",
"KX c gray3",
"LX c #040812",
"PX c #000808",
"IX c #020800",
"UX c black",
/* pixels */
"pX%XXX$X$X$X$X$X$X$X$X$XXXXXXX/./.XX/./././././././././.!././././.!.!.!.!.!.!.!.!.!.XXXXXXXX'.'.!././.!././.XX$X$X$X$X$X$X$X!.2X",
"pX!.-.1.-.Q Q Q R J Q J Q Q R h h h h h h h h h h h f h f f f h f f f f f f f f f f y 7 6 y f 6 6 6 7 6 7 q 7 6 6 7 q f a 6 = n.",
"pX!.$X/.G.G.'.G.G.G.G./.[.[./.G.G.G.B.q.n.n.n.n.q.n.q.n.n.n.n.n.n.n.q.q.n.q.9.9.9.q.Q -.R Q | -.R R -.Q 9.Q -.9.q.c.!.D.' n 6 !.",
"yX/.G.G.D.[.!.h 7 7 7 7 f 7 7 7 7 3 3 - - - 3 : - - 3 - 4 4 3 - - - 3 - 3 = = = & = & + # # + + O + + + # = = - 2 h Y.'.( J 6 !.",
"pX[.:X[.'./.[.h q.q.q.q.q.q.q.9.9.-.Q -.( Q Q -.1.-.Q 1.-.-.-.-.-.9.Q -.-.Q Q Q Q D R D D D f f y f f f f h n R Q f D.'.}./.9.!.",
"yX6XNXf J.G.'.r 1.G.!.:XsX$XD.-.-.Q -.n./.B.1.Q Q 1.q.!.G.k.!.[.n.-.!.n.!.!.G.D.' n.n.-.D.n.g.9.>.-.R f h f R G.9.D G.6XBXf g.!.",
"pX'.vXhX'.!./.7 1.sXGXNXbXKXNXD.Q -.Q SXUX9X1.-.Q !.AXUXFXzXFXKX!.'.DXzXKXKXAXBXn.FXKXzXKXAXFXNXzXAXDX-.R R q.KXqXh !.9XAXcXD.!.",
"pXB.G.[.G.G.[.y Q KXNX( 9.-.n.Q -.Q G.AXGXAX-.Q Q G.FX$XQ -.9.-.-.$XUXq.-.R R D h D R Q zXn.h q 7 D.FX6XR 9.zX6XR h !.jXtX6XQ !.",
"pX1.q.B.n.!.'.7 -.FXAX$Xn.-.-.1.-.-.sXNX9XlXG.-.Q G.FX[.Q Q Q Q Q !.KXG.q.9.-.D D D D q.KX'.f q f f -XFX!.NXNX9.R h D.9X2XJ.f !.",
"pX( q.q.q.G.G.7 Q $XAXFXzXwXq.Q Q o.KX:XQ zXzXQ J G.KXzX:XwXwXG.J [.KXwX6XsXwXh h h f D.UX'.f f f f Q NXFXDX'.R R f G.9X!.g.6 !.",
"pX| 1.q.1.!.G.7 Q Q q.:XsXKXNXq.D $XFX!.'.xXUXQ h n.KXlXlXNXCX/.D $XDX5X+XgX$Xh f f f D.UX9.6 6 6 6 a -XUX6XR R R f D.D.n.9.= !.",
"sXQ ( 1.1.k.!.7 Q Q Q Q Q sXUX!.Q FXBXfXNXCXJX5XQ !.KXqXQ ( Q R Q [.LXD.Q Q R R Q R R D.JXZ.f f f f x Y.UXD.R R R f D.D.9.n = !.",
"pXh Q 1.o.B.G.y -.[.G.Q -.:XKXG.q.UXsXE.[.[.zXKX( !.AXsX>.Q -.Q J ).JX}.q.q.q.q.R h h D.JX'.h x h f f D.FXY.n R R f D.D.9.R = !.",
"pXR Q Q Q E.G.7 Q bXAXNXAXbXsXo.hXFXq.J Q J Y.UX!.D.AX6XJ Q Q -.-.+XBXAXzXzXmXBXR D R G.FXE.I R x f x Y.BXZ.R R R f D.D.-.n = !.",
"pXn Q Q Q u.G.7 Q G.$X:XsX[.n.Q G.Y.Q Q Q Q Q $X!.u.[.G.q.Q u.-.u.q.G.[.:X[.-X-XR ' R -.Y.9.R h f x x | G.9.R R R f D.D.R I # !.",
"pXf h Q Q D.B.7 Q Q Q -.Q -.( Q 1.( o.( u.Q o.@.o.U u.o.Q u.Q q.( q.q.k.-.o.( q.o.R ' R ' n n n n n n R R R R R R f D.D.R n = XX",
"pXh R B Q u.G.7 1.Q Q Q 1.Q Q o.Q o.Q o.R o.Q o.J o.-.@.G.| o.( o.5.1.q.G.n.q.Q o.U D ' ( ' R ' R Q R Q R R n x n a D.D.f x = !.",
"pXh B Q Q n.G.7 ( 1.Q -.Q o.Q R o.AXhXo.o.| wX:Xo.U 9XNXSXKXhX| o.q.wXNXAXKXsX| J gXFXHXlX:Xg.' I / R R n n R R x f D.9.f f = XX",
"pXh R Q Q G.G.7 ( Q Q R o.R o.o.R UXbX| ( o.UX:Xo.+XUXwXg.1XKXbXq.qXVX}.k.g.KXAX| lXAXD.g.bXUXwXF n Z n R R R R I a D.9.f f = !.",
"sXh n Q Q G.z.7 Q Q o.Q o.o.Q o.o.NXfXo.o.o.PX Xu.AXbXo.o.@.BXKXR.SXZXk.q.o.:XKXq.zXKX| | g.qXSXG.' R ' R ' R R I 6 D.9.f q = XX",
"pXn B J Q G.G.7 Q o.-.o.-.q.q.1.q.KXCX$X[.-XUX1Xk.KXwXo.2.| >XKXCXKX0Xo.@.q.k.UX+XgXwX| | | G.FX1XL ' Q ' R ' R I f ).D.x 7 = !.",
"pXn k Q U k.G.7 Q ( u.Q @.1.@.o.o.GXsXhXNXCXUX}.k.AXiX@.E u.3XUXCXzXwX2.q.E R.UXhXhXAX| | | [.KX1XB Q Z | ' R / R f L.D.R x , XX",
"pXh J J Q k.G.f 1.q.Q u.q.o.q.q.q.UX>Xo.L u.FX3XR.KX3Xm k.E iXUXiXHXkX8.E E OXUXoXbXKX| | L 1XKXY.| L | ' Q ' R R f Y.L.R I 6 !.",
"pXh Q J Q k.G.7 Q q.1.q.o.g.q.o.o.FXbX@.E :.UX}.8.GXGX8...8.bXFXF.AXAXA.[ 2.vXUX@.bXKXo.) Y.bXNXo.| | | Q ' Q ' R f D.D.R x 6 XX",
"pXR Q Q Q J.R.7 o.q.o.o.q.o.q.o.@.PXwX2.[ b.FXwX..#XAXkXa.hXAX=X..`.dXkXe.3XSX[.S kXFX(.wXDXAXY.| | | | | | R | R f Y.D.I I 6 !.",
"sXh h Q k k.B.r Q o.o.q.:.o.@.@.E bX3X) E 8.MX`.....`.SXGXHX=X....[ `.hXNXBX7XH [ `.bXaXbXiXk.o.T | | | | | | ' R f Y.D.R R f !.",
"pXD Q h | k.J.e Q ( o.o.o.o.:.E @.E T [ E ) ..............P ..H ..H P M H H M H M [ S c [ T T T L T ' L F n n n I u D.g.R R f XX",
"pXh h Q k k.J.@.( T o.o.T o.E [ @.E E T [ ............O.P ~ ~ ^ ~ ^ P P P M P M M M M M c T c c m c n n n n n h h Q D.D.R R V !.",
"pXh h B o.q.R.Q.}.Q.}.R.Q.|..X`.`.`.`.T.T.T.T.T.T.^.T.K.H.K.H.C.H.C.C.H.C.C.C.C.C.F.M.F.F.A.A.A.A.A.A.Y.Y.G.Y.G.G.G.D.s.R R D XX",
"pXh | @.Q e G.R.}.R.R.Q.Q.Q.F.U.F.U.T.T.T.T.T.C.S.C.K.S.C.i.C.C.C.C.C.C.C.C.C.d.d.M.F.a.A.A.A.U.A.A.A.A.A.A.Y.Y.Y.Y.g.h J._.R /.",
"pXQ nXx k.k.o.( q.T u.@.*.2...E ..8.8.8.a.8.d.d.d.<.<.<.<.<.<.<.<.<.<.<.<.<.=.d.a.=.a.a.2.2.[ [ ) H T o.o.L | L | ' | !.CXf R !.",
"pX-.cXnXo.Q o.o.o.u.E @.8.8.2.....8.A.A.b.A.A.A.A.d.d.d.d.d.F.A.d.A.a.d.d.a.d.a.a.A.A.k.V.k.k.2.[ :.2.o.T T | | | Q Q Y.jXzXh !.",
"pXR <X:Xk.o.( o.o.E k.@.2.k.k. XE 1 t 1 @   @ @ t 1 t t 1 1 @ 1 p.1 g p.p.p.p._.x.W p.W x.m R.`.2.2.:.) o.o.L | | | | q. X!.6 !.",
"pX7 n.u.R | | o.g.E 2.[ 2.2.Y.0X6 uX_.W W 1 W 1 t t x.W t t W W 1 W x._.U U U *XW.t *.x.z.$ hXOXa.2.e.2.) o.) | &.' Q t.9./ 6 !.",
"pXq u f ' B | g.E o.@.[ 2.b.Y.0X1XzX].&X4X&X&X4X>X9X&X&X&X>X&X;X4X&X&X&X&X&X&X&X>X4X;X9Xx.zXzX3XA.2.V.2.) T o.o.L | | Q +.n 2 !.",
"sXq o.F B | | | T o.E 2.e.k.Y.0Xu.x.U N.P.N.N.N.r.r.6.6.6.6.r.6.r.r.6.} 6.6.S.r.S.K.S.{.{./.].wXQ.A.a.:.[ T o.T | | ' ' R / 3 !.",
"pXx F Q L | o.L @.E [ [ ..8.Y.0X7.5.< 4.h.j.0.;.y.%.4.Y ` ` Y %.` y.j.` K ` Y 4.,.4.N.6.;XW..XtX`.a.b.=.) T T :.L ' | Q ' R 6 !.",
"pXR L R o.| o.[ 2.2.[ [ [ 2.Y.0X7.p.< K w.w.w.;.0.G ` { l ` Y A { A ;.0.` l Y K ,.` y.P k _.;XhX`.A.a.e.[ ) :.T &.L | +.R Z 3 !.",
"sXR ' B | o.o.@.E T [ [ 8.e.Y.0X] W < j ;.0.;.;.{ %.z A Y s ` Y A { { 0.;.` K K K ,.,.P : @X;XiX`.8.2.[ [ [ T | L ' ' ' R h 6 XX",
"pXR ( ' Q o.| T o.T [ [ [ 8.Y.0X7.z.< j { %.%.{ { z A s Y l s ` K { { { w.;.Y s Y K ,.M % XX.XbXQ.a.e.[ [ ) L | L ' ' ' n n 6 !.",
"yXn B | o.| | o.T ) T [ [ 2.Y.0XW p.< d { ` z A l s s s i K K s { K %.G A w.%.l N K K M % ,X;XkX`.a.2.[ ) ) L L o.| | | | Q 6 !.",
"yXh Q | | | | T T T [ [ ..a.Y.eXW 5.< 0 Y Y l z 9 5 5 ; i i K N K { l %.%.{ w.%.K N K 0 % @X;XbX`.a...S S c c B p B n x q 7 6 n.",
"6Xh k | | q.| E E [ E ....8.Y.0XC z.< d b K K s 5 o o o 8 N j K K Y ` z ;.G %.w.{ K ` > O XX;XNXOXa...[ [ H c c L F F F | k 6 !.",
"yXJ | ( o.| T 2.[ E #.....A.Y.eXW 5.< j K w i s 5 o o > ; 8 > i * Y l { ` ;.;.;.0.{ ` >   ,X.XNX`.a.8.[ [ ) T T o.L F L h F 6 !.",
"yXf k | | o.g.E @.2.@.a.8.A.Y.0XC _ < b { s w i 9 5 ; ; w 8 i K b ` ` ;.;.G 0.;.;.;.y.>   XX<XNXOXa.a.#.#.[ ) T L L F n h f 6 !.",
"pXh J J | o.o.k.[ 2.2.a.a.b.Y.eXC 5.< N %.{ l w s z z s s b b b K N ` %.;.;.{ 0.;.0.y.d . XX;XNXOXA.a.a.a.2.) T o.F n x h e 6 XX",
"yXf h D | o.q.E @.2.2.8...a.Y.qXC _ < N ;.;.;.z s z G z z K N b K } Y { %.;.;.{ w.;.w.b . ,X;XNXOXa.A.a.a.2.2.k.2.F F n n n 7 XX",
"pXD ' Q o.o.| @.2.@...[ a.A.Y.uXW _ < K w.w.0.;.G l A G { z K N b K X.,.{ ;.0.;.;.w.;.b O ,X.XNXOXA.A.a.e.8.2.2.u.9.| F R Z 6 XX",
"pXD J ' Q | T ) E 2.a.8.8.8.Y.uXW _ % K w.w.w.w.w.! z G G { ` K b K } ,.4.%.0.w.0.w.0.b # ,X;XNXOXA.A.a.2.e.2.:.&.o.' n n h 6 $X",
"pXR n ( o.q.o.q.2.[ @.2.a.b.Y.eXt _ < Y l.l.l.l.l.l.w.G G ;.{ ` K } K ,.,.y.;.w.w.w.h.i O ,X&XNX`.A.A.a.2.2.2.k.:.o.| F h f - $X",
"pXh L | Q :.g.:.[ 2.[ ..e.8.L.uXW _ % K l.l. . .$.w. .! G ;.%.{ K b } b Y ,.{ ;.w.w.w.` O W.9XNXOXA.A.e.8.:.:.) | | L F n r - $X",
"pXh h o.( g.g.) g.2.2.2.2.V.Y.eXW _ < 0 ` z v z z z z z s i N s j d d d d j N K Y { y.4.4 ,X.XNXQ.V.V.[ 2.) :.L &.+.' Q F q # $X",
"sXr ' R g.q.:.:.o.2.2.2.a.k.L.fXX 8X: : : : : @ X @ @ X @ X X @ @ @ @ @ @ @ @ @ @ @ k f.-.,X6 NX(.A.k.a.2.:.:.&.&.&.| g.q.h - $X",
"pXV ( q.| k.q.&.g.2.b.8.b.2.'.uX1XdXf.U U U U _ U D R n.n.B././.G.G.G.[./.6X%X@X4X4XrXrX4X[.zXNX(.V.k.2.2.g.) v.L s.| G.%X9.3 $X",
"pXf '.q g.o.g.k.k.g.e.A.8.R.Y.fXz.J.z.5.U _ 5.Q >.'.G.G.R.[.G.G.D.G.Y.[.[.6X9X9X9XtX4XwX@XrXhXdX`.k.V.2.2.) g.g.v.9.s.].&X/.7 $X",
"pXR iXCXq.q.o.g.:.:.k.V.b.b.Y.qXqXhXhXvXzXvXvXvXhXhXvXvXvXzXvXvXhXvXdXhXbXbXNXNXbXvXbXNXbXkXiX#XR.A.b.b.2.g.:.s.:.g.g.;XGXdXf $X",
"pXR  X:X[.9.g.q.g.V.V.A.V.b.b.Y.Y.R.oXOXOXoXOXoXoXoX[.OXOX%X$XOX[.}.}.OX1XOX1X3XqXwXwXgX1XOXR.}.R.b.2.k.k.:.g.g.g.g.m.4XnXrXR $X",
"pXR 9.G.D.g.q.g.o.Y.R.Y.k.G.J.b.Y.R.R.k.V.V.k.b.V.e.2.a.A.b.k.A.k.b.b.e.k.8.V.k.k.k.k.g.D.2.k.k.k.b.b.k.g.g.:.q.g.g.g._.2X}.f $X",
"sXh 9.9.q.9.g.q.g.u.Y.b.Y.G.k.k.b.R.b.A.8.a.a.a.d.a.<.<.<.d.<.d.d.d.<.d.=.=.a.a.a.d.a.a.a.b.a.8.b.k.k.g.m.g.g.m.g.m.s.D.D.!.h $X",
"pXf R 9.s.g.q.g.q.g.u.J.J.J.J.J.J.J.b.b.8.8.a.a.d.a.=...=.d.d.d.<.a.a.d...[ ..8.a.a.2.2.2.8.8.A.b.k.k.V.g.g.g.g.m.s.g.t.9.' 6 $X",
"pXf | 9.q.9.g.9.:.q.k.J.J.Q.J.J.J.b.b.8.8.e.2.8.a.a.d.8...a.d.a.a.=...[ 8.=.=.2.e.2.e.2.2.2.8.2.g.g.g.g.q.g.g.m.Z.g.>.s.' I 3 $X",
"sXf R | 9.g.9.g.9.q.u.u.G.J.b.J.k.G.b.8.8.b.a.8.2.e.2.[ ..2.e.a.#.[ [ [ ) e.2.e.2.8.2.2.2.b.V.V.V.Y.Y.k.m.g.g.s.g.t.t.' >.f = $X",
"pXf D R R R R R R I R I R R Q Q R R R R R R R R R D R D h R D R D f I x R V R D R R R R R R R R R R n R n R I R R I f a q 6 = $X",
"pX2X$XXXXX$XXXXXXXXXXXXX$XXX$XXX$XXXXX$XXXXXXXXXXX$XXX$XXXXX$XXX$XXXXXXXXX$XXX$XXXXXXXXXXXXXXXXX$XXX$XXX$XXX$XXX$XXX$XXX$XXX$XpX"
};
