/* XPM */
static char *_8d9f4cc1f71485bae92f9975ac92bc5YQRmr7PYnFB4QydG[] = {
/* columns rows colors chars-per-pixel */
"64 64 256 2 ",
"   c #ADA59C",
".  c #9C949C",
"X  c #8C9494",
"o  c #8C8C7B",
"O  c #848C8C",
"+  c #7B8C84",
"@  c #848484",
"#  c #84847B",
"$  c #7B8484",
"%  c #848463",
"&  c #7B847B",
"*  c #73847B",
"=  c #847B73",
"-  c #7B7B7B",
";  c #7B7B73",
":  c #7B7B6B",
">  c #737B7B",
",  c #737B73",
"<  c #737B6B",
"1  c #6B7B73",
"2  c #7B736B",
"3  c #737B52",
"4  c #73737B",
"5  c gray45",
"6  c #73736B",
"7  c #6B7373",
"8  c #6B736B",
"9  c #6B7363",
"0  c #637373",
"q  c #63736B",
"w  c #6B7352",
"e  c #6B6B73",
"r  c #6B7342",
"t  c gray42",
"y  c #6B6B63",
"u  c #636B73",
"i  c #6B6B5A",
"p  c #636B6B",
"a  c #6B7329",
"s  c #636B63",
"d  c #636B5A",
"f  c #5A6B6B",
"g  c #636B52",
"h  c #5A6B63",
"j  c #636B42",
"k  c #5A6B5A",
"l  c #63636B",
"z  c #5A6B52",
"x  c gray39",
"c  c #63635A",
"v  c #5A636B",
"b  c #636352",
"n  c #5A6363",
"m  c #636342",
"M  c #5A635A",
"N  c #52636B",
"B  c #5A6352",
"V  c #6B5A52",
"C  c #526363",
"Z  c #5A634A",
"A  c #52635A",
"S  c #526352",
"D  c #52634A",
"F  c #5A5A63",
"G  c #635A4A",
"H  c #635A42",
"J  c #5A5A5A",
"K  c #5A5A52",
"L  c #525A63",
"P  c #5A5A4A",
"I  c #525A5A",
"U  c #5A5A42",
"Y  c #525A52",
"T  c #42634A",
"R  c #4A5A63",
"E  c #525A4A",
"W  c #5A5A31",
"Q  c #4A5A5A",
"!  c #525A42",
"~  c #5A5252",
"^  c #4A5A52",
"/  c #4A5A4A",
"(  c #525A31",
")  c #52525A",
"_  c gray32",
"`  c #52524A",
"'  c #4A525A",
"]  c #525242",
"[  c #4A5252",
"{  c #4A524A",
"}  c #525231",
"|  c #4A5242",
" . c #395A42",
".. c #425252",
"X. c #4A5239",
"o. c #42524A",
"O. c #425242",
"+. c #4A4A52",
"@. c #425239",
"#. c gray29",
"$. c #524A31",
"%. c #4A4A42",
"&. c #424A52",
"*. c #4A4A39",
"=. c #424A4A",
"-. c #4A4A31",
";. c #424A42",
":. c #4A4A29",
">. c #424A39",
",. c #394A4A",
"<. c #424A31",
"1. c #4A4A18",
"2. c #4A4242",
"3. c #394A42",
"4. c #424252",
"5. c #394A39",
"6. c #42424A",
"7. c #4A4231",
"8. c #394A31",
"9. c gray26",
"0. c #4A4229",
"q. c #394A29",
"w. c #424239",
"e. c #39424A",
"r. c #424231",
"t. c #394242",
"y. c #424229",
"u. c #314A29",
"i. c #394239",
"p. c #394231",
"a. c #4A3931",
"s. c #394229",
"d. c #314239",
"f. c #423939",
"g. c #394221",
"h. c #314231",
"j. c #39394A",
"k. c #423931",
"l. c #314229",
"z. c #393942",
"x. c #423929",
"c. c #314221",
"v. c #393939",
"b. c #294231",
"n. c #393931",
"m. c #313942",
"M. c #393929",
"N. c #294221",
"B. c #313939",
"V. c #393921",
"C. c #313931",
"Z. c #423129",
"A. c #293942",
"S. c #313929",
"D. c #393139",
"F. c #293939",
"G. c #313921",
"H. c #393131",
"J. c #293931",
"K. c #393129",
"L. c #293929",
"P. c #313139",
"I. c #393121",
"U. c #293921",
"Y. c #313131",
"T. c #293918",
"R. c #313129",
"E. c #293139",
"W. c #213921",
"Q. c #293131",
"!. c #213918",
"~. c #293129",
"^. c #293121",
"/. c #293118",
"(. c #312929",
"). c #292939",
"_. c #213121",
"`. c #292931",
"'. c #312918",
"]. c #213118",
"[. c gray16",
"{. c #213110",
"}. c #292921",
"|. c #212931",
" X c #392118",
".X c #183118",
"XX c #212929",
"oX c #183110",
"OX c #212921",
"+X c #212918",
"@X c #292121",
"#X c #212131",
"$X c #182910",
"%X c gray13",
"&X c #212118",
"*X c #102910",
"=X c #182121",
"-X c #102908",
";X c #18184A",
":X c #182118",
">X c #181821",
",X c #181818",
"<X c #082108",
"1X c #082100",
"2X c #101818",
"3X c #101810",
"4X c #101029",
"5X c #181010",
"6X c #101018",
"7X c #101010",
"8X c #101008",
"9X c #081010",
"0X c #081008",
"qX c #080829",
"wX c #080810",
"eX c gray3",
"rX c #000800",
"tX c #000021",
"yX c #000018",
"uX c #000010",
"iX c black",
"pX c black",
"aX c black",
"sX c black",
"dX c black",
"fX c black",
"gX c black",
"hX c black",
"jX c black",
"kX c black",
"lX c black",
"zX c black",
"xX c black",
"cX c black",
"vX c black",
"bX c black",
"nX c black",
"mX c black",
"MX c black",
"NX c black",
"BX c black",
"VX c black",
"CX c black",
"ZX c black",
"AX c black",
"SX c black",
"DX c black",
"FX c black",
"GX c black",
"HX c black",
"JX c black",
"KX c black",
"LX c black",
"PX c black",
"IX c black",
"UX c black",
/* pixels */
"H.w.2.9.9.9.9.9.9.9.9.9.2.2.2.%.%.2.%.%.%.%.%.%.%.%.%.%.#.%.%.%.%.#.#.#.#.#.#.#.#.#.2.2.2.2.=.=.#.%.%.#.%.%.2.9.9.9.9.9.9.9.#.f.",
"H.#.J K J M M M n c M c M M n s s s s s s s s s s s p s p p p s p p p p p p p p p p t 8 7 t p 7 7 7 8 7 8 q 8 7 7 8 0 p u 7 > _ ",
"H.#.9.%.{ { =.{ { { { %.;.;.%.{ { { ` Y _ _ _ _ Y _ Y _ _ _ _ _ _ _ Y Y _ Y I I I Y M J n M A J n n J M I M J I Y ) #.[ C h 7 #.",
"D.%.{ { [ ;.#.s 8 8 8 8 p 8 8 8 8 5 5 , , , 5 < , , 5 , 6 6 5 , , , 5 , 5 > > > - > - $ & & $ + O $ $ $ & > > , 4 s o.=.B c 7 #.",
"H.;.i.;.=.%.;.s Y Y Y Y Y Y Y I I J M J B M M J K J M K J J J J J I M J J M M M M x n x x x p p t p p p p s h n M p [ =.>.%.I #.",
"D.v.%Xp | { =.y K { #.i.Y.9.[ J J M J _ %.` K M M K Y #.{ / #.;._ J #._ #.#.{ [ C _ _ J [ _ ^ I F J n p s p n { I x { v.=Xp ^ #.",
"H.=.XX~.=.#.%.8 K Y.8X%XOXeX%X[ M J M 3XiXn.K J M #.,XiX7X[.7XeX#.=.9X[.eXeX,X=X_ 7XeX[.eX,X7X%XXX,X9XJ n n Y eXB.s #.n.2X}.[ #.",
"H.` { ;.{ { ;.t M eX%XB I J _ M J M { ,X8X,XJ M M { 7X9.M J I J J 9.iXY J n n x s x n M [._ s q 8 [ 7Xv.n I [.v.n s #.(.I.v.M #.",
"H.K Y ` _ #.=.8 J 7X,X9._ J J K J J Y.%Xn.`.{ J M { 7X;.M M M M M #.eX{ Y I J x x x x Y eX=.p 0 p p t.7X#.%X%XI n s [ M.f.| p #.",
"H.B Y Y Y { { 8 M 9.,X7X[.C.Y M M S eXi.M [.[.M c { eX[.i.C.C.{ c ;.eXC.v.Y.C.s s s p [ iX=.p p p p M %X7X9X=.n n p { v.#.^ 7 #.",
"H.A K Y K #.{ 8 M M Y i.Y.eX%XY x 9.7X#.=.|.iXM s _ eX`.`.&X:X%.x 9.6Xz.6.Q.9.s p p p [ iXI 7 7 7 7 u t.iXt.n n n p [ [ _ I > #.",
"Y.M B K K / #.8 M M M M M Y.iX#.M 7X>X).OX:XqXz.M _ eXB.M M M n M =.uX[ M M n n M n n ^ qX' p p p p f o.iX[ n n n p [ [ I h > #.",
"H.s M K S ` { t J ;.{ M J i.eX{ Y iXY.+.;.;.[.eXb #.,XY.F M J M c +.yX;.Y Y Y Y n s s _ tX#.s f s p p [ 7Xo.h n n p [ [ I n > #.",
"H.n M M M +.{ 8 M OX,X%X,XOXC.S Y.7XA c M c [ iX#.[ ,Xv.c M M J J 6.%X,X[.[.#X=Xn x n [ wX[ v n f p f o.=X' n n n p [ [ J h > #.",
"H.h M M M E { 8 M { 9.i.Y.#.Y M { { M M M M M 9.#.P ;.{ J M K J K Y { ;.v.#.t.9.n n n J o.I n s p f f A { I n n n p [ [ n v & #.",
"H.p s M M [ ` 8 M M M J M J B M K B M B K M M B M c K M M K M J B J J Y J M M J M n n n n h h h h h h n n n n n n p [ [ n h > 2.",
"H.s n k M E { 8 K M M M K M M M M M M M n M M M c M J B { I M M M K J J #._ J M M c x n M n n n n M n M n n h f h u [ [ p f > #.",
"H.s k M M _ { 8 B K M J M M M n M 2XY.M M n C.i.M b n.%X7X0X[.C M J C.:X,XeXY.n x Y.7X9X[.t.^ n v v n n h h n n f p [ I p p > 2.",
"H.s n M M E { 8 B M M n M n M M n iXOXn M Y iXt.M e.iXv.I z.eX}.J B.;X;.Y [ eX,Xn `.,X[ Q XXiXC.h h f h n n n n v u _ I p p > #.",
"Y.s h M M { ] 8 M M M M M M M M M :XE.M M S uX&.Y 2X}.A M S %XeX;.2X>XY J M i.eX_ [.eXn n I v.2X[ n n n n n n n v 7 [ I p 0 > 2.",
"H.h k c M E { 8 M M J M J J J J J eX&X9.9.6.iXi.[ 8XP.M A n n.eX%XeXj.A M J [ iX4.Q.B.n n n [ 7Xt.h n n n n n n v p [ [ f 8 > #.",
"H.h d M b [ { 8 M B K M B J B M M 7XY.Q.%X:XiX;.Y ,XS.M M J B.iX%X[.C.M F M [ iXY.[.=Xn n n =.eXi.h n f n n n v n p ..[ n f 1 2.",
"H.s c c M E { p K J M K J M J J J iXv.M n _ 7Xi.#.eXv.c J M C.iXY.7X[.S M M 9.iX=.[.eXn n n t.eX+.n h n n n n n n p [ ..n v 7 #.",
"H.s M c M { { 8 M J J J M I J M M 7XOXM M I iX;.E 7X7XS B S }.7X{ ,X,X[ M n [.iXJ XXeXn C [ XX%XC n n n n n n n n p [ [ n f 7 2.",
"H.n M M M E ;.8 M I M A J M J M M eXC.M M _ 7Xn.M t.,X[.Y ~.,Xi.M { Y.~.I t.7X#.h [.7X=.v.7X,X[ n n n n n n n n n p [ [ v v 7 #.",
"Y.s s M d { ` 9 M M M J A M M M M OXi.n M S %X;.M M ;.,X7X7Xt.M M n =.Y.%X%Xd.h h =.OXY.XXC.I n n n n n n n n n n p [ [ n n p #.",
"H.x M s M Y | 8 M M A M M M A M M M n M M n M M M M M M M k n h n h h s h h s h s n h h n n n h f h v h f f f f v 0 [ Q n n p 2.",
"H.s s M d { | B B M M A M M M A K M M n M B M M M M M M k k k h k h h s s s h s s s s s f h f f s f p p f p f p p n [ [ n n l #.",
"H.s s k M Y { >.>.;.;.=.;.w.w.9.>.9.;.;.;.;.;.;.;.;.;.;.=.;.o.{ o.{ { o.{ o.{ { { { [ [ [ [ [ [ [ [ [ [ [ [ [ [ [ [ [ I n n x 2.",
"H.s A B M 8 { #.;.%.=.#.;.%.=.%.=.#.=.%.=.%.=.%.=.%.=.| { { { { { { { { { { { { { [ [ [ [ [ [ { { { o.{ o.{ =.{ &.{ Q s ] *.n %.",
"H.M '.f Y Y M M J M K J B J B M M A Y Y Y I Y I K A M I c M n M A M A F A F C I I A A I I A A n h h n n n n n n n v n #.:Xp n #.",
"H.J @X+XB n M M M K M M K S M M M Y _ [ [ _ Y Y Y Y Y Y I Y I ) I [ I I Y I I I I I [ [ [ _ I I n n n n n n n n n n n { (.[.s #.",
"H.n r.w.Y M M M M M Y J M _ Y e.k w r 3 %   % % r 3 r r 3 3 % 3 W 3 a W W W W *.( m W m ( g ;.+.A F A n n n n n n n n I =.#.7 #.",
"H.8 _ K n n n M I M A A J Y &.t.e B.-.m m 3 m 3 r r ( m r r m m 3 m ( ] b b b 1.$.r ! ( ! * ~.9.I I I n C n C n C v n L L v 7 #.",
"H.0 0 u v h n I M n J M J _ [ m.d.[.:.r.k.r.r.k.p.n.r.r.r.p.r.y.k.r.r.y.r.r.r.r.p.k.y.M.( [.[.i._ I [ n n n n n n n n n C f 4 #.",
"Y.0 M h h n n n n n M L A [ +.m.E ( i ].].^.U.^.S.S.p.s.l.p.l.l.G.U.s.i.p.p.S.S.G.U.S.M.<.%.-.C.#.^ Y C n n n n n n v v v v 5 #.",
"H.f h n h n M n M M A M M Y ..m.U P 2 U.-X$X.X.X]._.U.l.L.l.S.U.L.]..XL.l.l.l.U.L.U._.p.y.$.<.R.#.^ I A n n n C n v n n v v 7 #.",
"H.n h n M n M A I A n n n I [ m.U W 2 p.*X$X$X]..XU.U.U.l.L.l.L.U.L.].oXL.l.l.l.L.L.U.>.i *.y.R.=.[ Y L C n C n C n n N v f 5 #.",
"Y.n n h n M M M M n n M M I [ m.Z m 2 >.]..X{.].U.].l.S.l.p.U.l.L.U.U.+X.XS.h.h.p.S.U.>.: 7.y.R.#.Y I n n n n v v v v v v p 7 2.",
"H.n M n n M n n n n M n n I [ m.U ! 2 X.U.]._.U.U.l.L.8.l.h.8.U.l.U.U.U.oX].l.p.l.p.L.| ; 2.<.[.{ I I n n n v v v v v v f f 7 #.",
"D.h h n M n n n n n n n n I [ m.m W 2 ] U.S.l.U.l.p.<.p.>.l.p.p.U.l.U.U.U.$X].p.p.p.8.| = a.y.~.#.I I n v v v v n n n n n n 7 #.",
"D.s n n n n n n n n M n M Y [ A.H P 2 P l.l.l.l.8.@.>.| <.>.p.8.p.U.l.].W.U.$XW.p.8.p.E # 7.y.XX#.I A f f p p p p p p u 0 7 7 _ ",
"v.s s n n J n M M M n M M I [ m.j ! 2 ] >.l.p.p.X.D g P ] 8.>.h.l.l.U.l.].T.W.$XU.s.S.K # 2.y.%X9.I A h h h h h f f f f n s 7 #.",
"D.c n M M n M A A M A M M [ ..m.H Z 2 *.h.*.>.8.>.D z U | | T >./ c.h.U.S.].].]..X].l.B   a.<.%X;.Y L n n n n n n n f h p f 7 #.",
"D.p y n n M I M J J J I J _ +.A.j V 2 >.U.p.@.>.8.*.X.X.*.>.>.8.5.G.L.].].U.oX]..X].].E   2.g.%X9.^ I C C C n n v f f p p u 7 #.",
"H.s x x n M M I A I I I I _ ..m.j P 2 <._.U.l.>.8.l.s.s.8.<.>.p.p.8.L.U..X].U.$X].oX.XO.. 2.y.%X;.[ _ I I J C n n f p u p q 7 2.",
"D.p p x n M J M M I J J M ^ +.F.j V 2 8.].].].l.8.l.U.S.l.p.p.5.p.h.S.U._.].].W.$X].$X>.X a.y.%X;.^ _ I I I I I I f f p f f 8 2.",
"H.x n n M M n M I J A M I [ ..B.H V 2 p.oX$XoXoXU.p.U.U.U.S.8.p.8.h.l.S.T.].oX].].$X.X8.@ a.<.%X;.[ _ I I I I I J F n f v f 7 2.",
"H.x x n n n M A M A Y Y J Y +.F.m V = l.*X*X-X*X$X].b.U.U.U.L.p.p.p.h.S.U._.].$XoX$XoX>.& a.y.%X9.[ _ I I I I L L J v p f p 7 9.",
"H.n s M M J M J I A J J I _ ..B.r V 2 l.-X<X-X1X-X<XoXU.].].U.L.p.p.h.S.L._..X*X-X$X*X5.@ a.r.%X3.[ _ Y I I I I I M n f p t , 9.",
"H.s h n n A I A A A A A A ^ &.F.m V = p.-X-X-X*X-X-X$XoXU..X!.G.l.8.p.8.l.U.U.].oX*X-Xl.@ $.M.%X=.[ _ I I L C C n n h f p t , 9.",
"H.s s M M I I A I I I I I _ ..B.m V 2 E l.l.c.q.u.u.u.q.8.@.q.@.@.| ! ! | X.8.q.s.N.^.U.6 a.<.%X;.[ _ A I C C C C N v n f 0 & 9.",
"Y.y n n I I A A M A I A I [ ..E.o b.< < < < < % o % % o % o @ % % % % % % % % % % % d ~ J a.7 %X=.[ _ I I C L C C C C I Y s , 9.",
"H.l M J A Y I C I Y Y Y Y ^ &.E.d.R.~ b b b b V V x n _ _ ` | %.{ { { ;.%.v.w.7.k.k.K.K.x.;.[.%X=.[ Q I I L C R C L C { 2.I 5 9.",
"H.p =.q I A I Y Y I ^ [ Y [ &.F.] | ] P G V P M L =.{ { O.;.{ { [ { o.;.;.v.n.n.n.V.x.S.7.K.[.Y.;.[ ) I A C I I R L L *.r.%.8 9.",
"H.n J.%XY J A I I I Y ^ Y [ { m.v.Q.~.[.~.XXXXXX~.~.XXXXXX[.XXXX^.XXR.~.OXOX%X%XOXXXOX%XOX[.C.t.o._ Y Y I I Q L I Q Q 0.5XR.p 9.",
"H.n =.i.#.I I I I ^ ^ ^ Q _ [ { =.{ ,.9.3.3.;.=.=.3.;.5.5.w.9.5.;.;.;.;.t.t.t.v.B.C.C.Q.v.3.;.#.#.Y I I Y I ^ I Q Q Q Z. XK.n 9.",
"H.n I { [ I I I A [ { [ Y _ #.[ { { { [ ^ ^ [ _ ^ Q Y ^ ^ _ Y / Y _ Y Y ^ Y [ ^ ^ ^ ^ ^ ' Y Y Y _ _ Y Y I I I I I Q Q %.f.>.p 9.",
"Y.s I I Y I I I I Y [ { [ [ _ _ { #._ [ Y I I I Y I A A A Y A I Y I A I C C I I I Y Y ^ Y Y ^ Y Y I Y I Q I Q Q Q Q Q [ [ #.s 9.",
"H.p n I Q I Y I I I Y ` ` ` { ` { ` _ _ Y Y I I Y I A M A K Y Y Y I I Y M n M J I I I I I Y Y ^ _ Y Y ^ I Q I Q Q Q Q R I C 7 9.",
"H.p A I Y I I I A I Y ` ` | ` ` ` _ _ Y Y I J Y Y Y Y J M I Y I I A M n J A A J I I I I I I Y Y I I I I I I Q Q ' Q L I C v 5 9.",
"Y.p n A I ^ I I I I Y Y _ ` ` ` _ _ Y Y Y _ ^ Y I I I M A J I I A n n n C I I I I Y I I I Y [ ^ [ [ [ ^ Q Q Q Q Q R L C L p > 9.",
"H.p x n n n n n n n n n n n M M n n n n n n n n n n n n s n n n x s v f n v n n n n n n n n n n n n n n n n v n n v f u 0 7 > 9.",
"H.f.9.2.2.9.2.2.2.2.2.2.9.2.9.2.9.2.2.9.2.2.2.2.2.2.2.2.9.2.2.2.9.2.2.2.2.2.2.2.2.2.2.2.2.2.2.2.9.2.9.2.9.2.9.2.9.2.2.9.2.9.9.H."
};
