/* XPM */
static char *_421dbcc441240ebaf1bcd724f4f525aTQn1UpSetsWUTF8s[] = {
/* columns rows colors chars-per-pixel */
"64 64 149 2 ",
"   c #1D1D19",
".  c #1F201E",
"X  c #23221E",
"o  c #242521",
"O  c #292723",
"+  c #262925",
"@  c #292925",
"#  c #2E2E2C",
"$  c #312F2B",
"%  c #2F312C",
"&  c #33332D",
"*  c #36392E",
"=  c #3A3A2F",
"-  c #363632",
";  c #393731",
":  c #373832",
">  c #3A3B34",
",  c #3D3E39",
"<  c #413F39",
"1  c #3E4036",
"2  c #3F413A",
"3  c #414137",
"4  c #42433D",
"5  c #44493E",
"6  c #454641",
"7  c #464942",
"8  c #4B4C44",
"9  c #4E4E48",
"0  c #4E5146",
"q  c #4F5149",
"w  c #515146",
"e  c #53544C",
"r  c #58564B",
"t  c #56594E",
"y  c #5A5B4E",
"u  c #535350",
"i  c #575951",
"p  c #5B5C52",
"a  c #615E53",
"s  c #5D6154",
"d  c #5F6857",
"f  c #5F6259",
"g  c #636356",
"h  c #686757",
"j  c #676857",
"k  c #696957",
"l  c #64655A",
"z  c #69675C",
"x  c #66695C",
"c  c #6B6B5D",
"v  c #716E5D",
"b  c #6D715E",
"n  c #70705F",
"m  c #666661",
"M  c #696761",
"N  c #666C61",
"B  c #6C6D62",
"V  c #6F6F68",
"C  c #716E62",
"Z  c #6E7264",
"A  c #6E7269",
"S  c #727365",
"D  c #797667",
"F  c #757866",
"G  c #7A7966",
"H  c #747469",
"J  c #79766A",
"K  c #76796B",
"L  c #777C6A",
"P  c #75786C",
"I  c #79796A",
"U  c #7A7B6B",
"Y  c #797A6D",
"T  c #79796E",
"R  c #7D7A6C",
"E  c #7E7A6C",
"W  c #7B7E6C",
"Q  c #7B7C6F",
"!  c #777771",
"~  c #787572",
"^  c #777970",
"/  c #767B70",
"(  c #7A7A72",
")  c #7D7B70",
"_  c #7B7E72",
"`  c #7D7D73",
"'  c #7B7D75",
"]  c #7D7F75",
"[  c #7E7D78",
"{  c #817E6D",
"}  c #807B72",
"|  c #817C73",
" . c #817E72",
".. c #7D816D",
"X. c #7D8173",
"o. c #7F8470",
"O. c #7B8075",
"+. c #7F827C",
"@. c #82826D",
"#. c #88846E",
"$. c #818473",
"%. c #808074",
"&. c #828374",
"*. c #838477",
"=. c #848476",
"-. c #858973",
";. c #888976",
":. c #818278",
">. c #84857A",
",. c #83867C",
"<. c #86867D",
"1. c #89877E",
"2. c #868A7B",
"3. c #85897F",
"4. c #8B897E",
"5. c #888B7E",
"6. c #8B8C7D",
"7. c #8B8C7F",
"8. c #878783",
"9. c #878B80",
"0. c #898980",
"q. c #8B8E82",
"w. c #8C8D81",
"e. c #8C8D87",
"r. c #908F83",
"t. c #8C9285",
"y. c #8D9088",
"u. c #939383",
"i. c #90938E",
"p. c #94958C",
"a. c #9A978F",
"s. c #97998E",
"d. c #9B9B8E",
"f. c #9D9D91",
"g. c #A19F93",
"h. c #9EA096",
"j. c #A3A395",
"k. c #A4A699",
"l. c #A8A69B",
"z. c #A6AA9E",
"x. c #AAAB9C",
"c. c #ABADA3",
"v. c #B0AFA1",
"b. c #B1B2A3",
"n. c #B5B8A6",
"m. c #B9BAA7",
"M. c #BBBDAC",
"N. c #C0BCAA",
"B. c #C6C2AF",
/* pixels */
"S b c Z J I ' ' H H Y Y o.I B l l x x c c B S S P P S c v c c B C H Y Q o.S l f l k z c c B S S P P S c v c c B F l B Y I $.Q S ",
"` ( ^ O.<.3.i.e.1.4.0.4.7.` | %.( ^ _ Q ` %.,.<.:.4.<.%.=.4.*.] 4.4.4.w.q.` } ] ^ ^ ` Q ] %.,.<.:.4.<.%.=.4.*.] O.' [ <.4.e.>.) ",
"8 8 7 8 9 q u e 9 9 e u w 9 8 9 8 7 7 7 8 9 8 8 9 e e 9 9 w 9 8 9 9 e u w 9 8 9 8 7 7 7 8 9 8 8 9 e e 9 9 w q 8 7 8 9 q u e w 7 ",
"w 8 e w 9 i e 0 w t r i y y w w w e t t w t 9 5 8 t t e i t e w w t r i y y w w w e t t w t 9 5 8 t t e i t e w 9 w w w t p y r ",
"c C I Z B H S B B H P S I Y Z c S P H B x B S N N I S c Z S B B B H P S I Y Z c S P H B x B S N N I S c Z S B B S S B H H J Y J ",
"B C E H B S S B B B J H K Q S N J E J S S S J S B S B I S J H B B B J H K Q S N J E J S S S J S B S B I S J H C I B c S H S Y L ",
"S B S S B N c B l g g x S S H Z B H c c C H H Q S k x S H P P B l g g x S S H Z B H c c C H H Q S k x S H P P Z c c B c g B S S ",
"d j c B C l s g s s y g c g g d x B l g l J J S c s y l B B x g f s p g c g g d x B l g l J J S c s y l B B x l x c B l y c x a ",
"Z P H H I H m N S B B B c Z B H P H B D S J E E Q H S @.J P H Q S B B B c Z B H P H B D S J E E Q H S { J P S Q Y P Y J B B Z Z ",
"k.z.k.f.f.z.k.j.l.f.s.s.p.j.x.k.c.f.d.b.l.x.c.x.M.m.M.B.N.n.v.n.l.f.s.s.p.j.x.k.c.f.d.b.l.x.c.x.M.m.M.B.N.n.v.n.k.j.z.h.p.p.a.l.",
"y i y y p i y p p p t e e p y i p y g l g c B N N h g x c g g l p p t e e p y i p y g l g c B N N k g x c g g l y y i y e e i p ",
"& & $ $ & $ $ & & & - : : - : & $ $ & & & & > , > & & : - & > > & & - : : - : & $ $ & & & - > , > & & - - & > > - & & & : : : : ",
"> 1 3 > : > > - * ; > > , , & - > > : * - > > < 6 > > , > ; - - - ; : : : 1 > > 2 , > - : & : , , > > > , , > > > : : : : - > 1 ",
"e p y w w t r t r r y i p x g p r 0 0 9 q e t r e t e t t w 9 9 8 8 0 e t t w t y r r r y e t p p y y p t i t t e w w 0 e e t w ",
"l B N c l g x g g c c z x I =.` c x l l f p g g l l z c l g l l p t l l B x p l N l z g l c S x g g l z g l g l l g l l x B B d ",
"Z Z B P S c c x l S B B J Y E Y Q H Y J B l c Z S H S H I B B S N l M ' %.Q ' P Q B B c N I Q Q H H H H J c c N S S S S B J ..Q ",
"K Z c J J H H B N H J H Q ` S S I D S H c c H H c Z H P X.H l B B l x H I X.w.*.I J P J Y H S I Q Q ` Q J S I P P I S l x B J *.",
"Q J S I J S H J B k S I J I H J H S c Z B c B n b c H E H J S I H c S S S ~ P _ S S E I B B S S B S I I S S S S S H C c B B H ! ",
"O.H S I I H S N S z H S S J Z B B P S b l B C c S B H B S I Z Q H x c c Z P *.I S S D n l B H J B B ..Q H H H S S H c B S S Z ] ",
"_ S J Q S B l x I B I c S ] H B c I S c z H S Z l c I Z Z S N Z x c b c I D _ L H I %.I S S F H S S O.Q Q I H c c I H I F S D I ",
"K S I I Q I B S P ^ Y I ] *.` Y S x g Z I H Q ` B S I I X.*.Y x Z S B B S C S S S J %.J D @...Q I J S S I B Z x N J J E Q I S B ",
"Z B A Z S Q Z H Y Y H Q =.E Y B B c Z L Q J Z S S S Q I ..t.%.Z I H B Z S B B B Q E Q X.E S E Y X.] Y S S L L x B Q >.J H J Z c ",
"C S Z x B S S S J S c I E X.S N A H S I H P L B S x c S I Y H I S Z S Z H H C B E Q I Q %.P I S *.$.H S S c S A S J %.%.Q S S S ",
"c S C l K J J S c A S %.| Q S ` L c B H B N H ` H B z B S H ( P c x Q I H B B B B S I E @.@.F S Q ` S B j x J E B g H @.Q J S B ",
"N B c B Q %.J S B Z S ` Y S c S b c S C g Z C H B z B P H P X._ H B S H S Z B N N B I E -.-.Q O.*.>.Z N H x S D c B H Q Q I Z Z ",
"P Y B B Q Q Y H S c l H H ( S z p c S S c Z Z B Z c N c Q >.| ` J B B C S S H ( Y J c c I ` X.0.0.*.I S B B Q B B B N S J S S S ",
"H Q S N H I J H S B x Z L Q S N g N c g B H H Z x l S c J %.Q Y S S P ' S S S I J B c F H B ^ *.%.S B B M H %.S N Z N S ' H v S ",
"B S S S H S x B H I S c x S H S I S p g N Q %.Z g c Y S Q J X.J I ,.O.I B S S S H c z H c x H Q S l c L I H ` I B P S H Q X.E J ",
"N c S Q J n x v E D S z y g B c H B p z g v S c B S Y O.%.J H O.E Q Y N x c S I Q I B H S B H *.X.b x B S H J J H J S S I Y ` S ",
"B B H ` J J S c H S S N g l H S B x l M m B g g B S I >.@.2.4.*.H B B x c z H Y ..I I D S P %.-.Q @.b l N B c B B S S S S B Z x ",
"H J I J S S S { I N B B A B S J Z l S Y S N z l B J ` J Y ' *.Y B S S H J H Y _ Q S b x v Z D S I 7.S g l l g B H Q I P H S S S ",
"I ] _ S B S H Y Q B Z S C M B B B x P Q E B H J N B J S H ' Y S B Z c H Q Q ` =.Q P J S I B B C %.3.H N l B B N B J Q I H S Z B ",
"J ` ] J B S I A S Z J J S B I B z l S J S B B H l x p B J E H S Z I S B S Z I Q Q P J J Z b I S Q Q S B B J S l x c H E B Z I N ",
"S S E I B S J H S H I _ O.H C S F ` ' [ Y Y B B g B x c E H l B B L I H Z Z Q I D E B S C Z I P Y S c B H B B z l x g l B Q o.H ",
"J B H S S B S H I P H H I N g c I 8.+.Q E J J l z Y Z B S c N J J B Z _ S L ] S l l B I Z B S I Y S S B S B B S B z a p B S L O.",
"Y _ H B k c B J _ B S Y c S E H I ( ` S S N Z l B B l E Q g x x S B N Q Y +.' Z a p B S l x B S H x x S z S J H B N c N B H Y ] ",
"Y [ S c x c B P ` S B ` I E I Z I %.I S c c B p c S S E X.x l B Z A l J [ ] H B N N B B l l B S B k l H B S F X.H l N N B Y ) S ",
"S J B N B N B ` I H S H ( P Y H H | Y Q J S x z S J Y L X.Q J S N Z Z S J H C z B Z B B S S H _ L S B N p x S Q J l N N m B J Z ",
"` _ S S S S H S J S B B I S B c S Y Q Q Q Q Z c S J Q Y Q H c x l g z P ` I S z z y c H H S H I J N B g p b L c p l S B p x g N ",
"` ` H B S H S S I I S l S B z x c H X.I E D S c S { D J _ B c J Z l z | >.( c g Z c N E J N H B c l N c x S H B g c S S S B g H ",
"S S S S S S K F @.Q S c S H S B B J O.Q H S c H B C c Y *.) H S B B N S Y E c z L b B S c J I H B S B l c S Z H B B S I Q H Z B ",
"` %.H B c S S F I H Z B Z J H S H S Q Q ^ I S H H S S Q E H H F S S J B c S l V B l ` Q l S %.E B J C S Q Q H I H J ` >.X.Q S c ",
"S S B c B B J J B B S S c C S S *.' H I I J S F @.S c S E ( Y Y S J X.I x g p Z A A Q I c J %.) J C B I ..E H S c H { D H Q S B ",
"B B B S B B J P J B H E Q S S S ] ) c c H Q H Q ..x S { { -.I J Q P P ^ B z B H J J H S B J %.) ( B l J S B c c H S C c B S Z B ",
"M z c B z z B B S c B S H H B c c S Z B H S S ` Q Z F #.@.Q S C I B S P S g f B C c B S J Q Q S Y S x r r f z B c B l z B z B z ",
"*.7.7.q.>.*.7.7.7.w.%.l i A S l c S H S S B Y ` J I ` E x l S S S B x c x z l l x c x B J Q P J $.-.s > 8 S <.4.7.4.%.>.4.7.4.%.",
"H ] O.*.| S ] O.%.q.p.J e l c I %.I l S P J I J J J X.S l z S S S l l B B z B N x g x N H J S I o.B 7 < y O.*.Q 7.2.Q $._ 7.2.E ",
"x S J c g x S J c f B p.Y y g x c x B S J ] _ J B B H J Y Y S B x B J I c x c B S C H S H S S Q B 6 4 e B H S S I Y S Z S I Q c ",
"C S S B S c S H C N i J p.S p p C S D S J | ] J l c I Y ` P B N F Y J H C k c J O.Y Z g g S S x 4 > q H x B B c Z H S c c Z H S ",
"I I B S H S B B N l g r H 4.g g S C S I C H E H l S Q Y H S S S B S Y S Q S c Y %.Q B p g k x 4 & 2 g l p x S B c x S S B c x C ",
"S J J S S Q ..H c y g x p | >.g w x Q B B B H S B ] _ Y J S S B M S E S S S c J I S C S B N w - > 9 l p x c c S c x Z B H J F S ",
"c B c c b H I S B h l g i N e.B w g C g F J B B Z Q | I S x c L I Y Q B c C B I ` B C c Z g 3 & 8 x x x B k l B S N B P _ O.Q S ",
"x B S J H N S S C C z i g l J =.z N g t x B l N B S J S l g g c Z Z x i g z N B H l p p p r 4 8 c l N H Z z B S S B B I Q Y ` S ",
"L H J H c H I C c H x y p g f >.j.r.H l S S z J J S Y ] H C B B H H x N S J _ Y Q S A C B x l I S N A S S g x B S S B S Z S E I ",
"I S S S S I C c S X.I o...Z g z s.M.v.x.l.k.f.j.f.t.s.f.k.x.j.j.x.b.d.a.j.k.k.b.l.k.v.l.g.s.>.J c B F S g r g B S I J P Z I Q F ",
"x c S H I Y N g J Q Q -...Q J S B S H { =.] E I J B S S %.%.{ E %.3.2.q.%.Q Y ` P I { Y S B s x c Z S S c c S c l S ( I S O.Q Z ",
"c B J H H J H c S I H c H H S S H c x v E I B c Z B c c J Q I I %.| I @.I I Y J S S H S c x B S B S Y Z S S Z B l B J H H Y S S ",
"B B c H H H S B S Q H Z I H N B B B c J Q I z g B S b k Z Q I Q =.%.C S Q I I Y J J | I S B B J ' Q _ A S S Z P Z N B S S c N H ",
"S B Z H ( S x z c b Z S D c s N N c B ( P Z l g B H c Q Q b H H E ..D H E S Z S S S Y I B c c Y 2.*.I J _ I Z Z S B B H Y Y H J ",
"S I :.] P B B B B B B H J Z x N H S J H B z B S Z S S ` Q Z c C I I I Q I S J { D Y I S S S S H P ` S H I J Q S H I Q %.*.X.Z z ",
"%.=.>.) E %.%.,.9.*.%.<.9.,.O.^ P ( >.>.%.E I H Q %.` O.' ) O.y.u.7.1.7.7.7.7.7.7.>.%.X.%.:.%.%.3.>.%.*.*.P ] 7.7.>.*.=.7.;.] ` ",
"S H J x l B c c Z Z B B S N l l p B H A c g z a c S B l m B J E G c S J S I J I H B S S c c B c B Z B B z x N B J B c g c S B J ",
"> > , > & & - 9 4 - & & & : 9 4 & > , > > 9 4 & & > > , u 7 , > > > e 8 > , > & , i 8 1 = & - > e 4 & & & & > 9 4 > : : = & 6 e ",
"O X o o X X o $ & o X     @ & # . o o o O & & X o o o O $ # o o o @ - $ X o o o @ - - O X X X + & & X     . o $ % o o @ @ o # - "
};
